<svg id="visual" viewBox="0 0 960 540" width="960" height="540" xmlns="http://www.w3.org/2000/svg" xmlns:xlink="http://www.w3.org/1999/xlink" version="1.1"><rect x="0" y="0" width="960" height="540" fill="#868686"></rect><defs><linearGradient id="grad1_0" x1="43.8%" y1="0%" x2="100%" y2="100%"><stop offset="14.444444444444446%" stop-color="#868686" stop-opacity="1"></stop><stop offset="85.55555555555554%" stop-color="#868686" stop-opacity="1"></stop></linearGradient></defs><defs><linearGradient id="grad2_0" x1="0%" y1="0%" x2="56.3%" y2="100%"><stop offset="14.444444444444446%" stop-color="#868686" stop-opacity="1"></stop><stop offset="85.55555555555554%" stop-color="#868686" stop-opacity="1"></stop></linearGradient></defs><g transform="translate(960, 0)"><path d="M0 405C-72.5 395.4 -145.1 385.8 -202.5 350.7C-259.9 315.7 -302.2 255.2 -333.4 192.5C-364.6 129.8 -384.8 64.9 -405 0L0 0Z" fill="#5d9fbb"></path></g><g transform="translate(0, 540)"><path d="M0 -405C72.7 -395.5 145.3 -385.9 202.5 -350.7C259.7 -315.6 301.4 -254.7 332.6 -192C363.7 -129.3 384.4 -64.6 405 0L0 0Z" fill="#5d9fbb"></path></g></svg>