<!DOCTYPE svg PUBLIC "-//W3C//DTD SVG 1.1//EN" "http://www.w3.org/Graphics/SVG/1.1/DTD/svg11.dtd">
<!-- Uploaded to: SVG Repo, www.svgrepo.com, Transformed by: SVG Repo Mixer Tools -->
<svg version="1.1" id="Icons" xmlns="http://www.w3.org/2000/svg" xmlns:xlink="http://www.w3.org/1999/xlink" viewBox="0 0 32 32" xml:space="preserve" width="64px" height="64px" fill="#000000">
<g id="SVGRepo_bgCarrier" stroke-width="0"/>
<g id="SVGRepo_tracerCarrier" stroke-linecap="round" stroke-linejoin="round"/>
<g id="SVGRepo_iconCarrier"> <style type="text/css"> .st0{fill:none;stroke:#54B9B8;stroke-width:2;stroke-linecap:round;stroke-linejoin:round;stroke-miterlimit:10;} </style> <path class="st0" d="M29,23H3c-1.1,0-2-0.9-2-2V11c0-1.1,0.9-2,2-2h26c1.1,0,2,0.9,2,2v10C31,22.1,30.1,23,29,23z"/> <path class="st0" d="M13,19L13,19c-1.1,0-2-0.9-2-2v-2c0-1.1,0.9-2,2-2h0c1.1,0,2,0.9,2,2v2C15,18.1,14.1,19,13,19z"/> <line class="st0" x1="18" y1="13" x2="18" y2="19"/> <line class="st0" x1="21" y1="13" x2="18" y2="17"/> <line class="st0" x1="21" y1="19" x2="19" y2="16"/> </g>
</svg>