<!DOCTYPE svg PUBLIC "-//W3C//DTD SVG 1.1//EN" "http://www.w3.org/Graphics/SVG/1.1/DTD/svg11.dtd">

<!-- Uploaded to: SVG Repo, www.svgrepo.com, Transformed by: SVG Repo Mixer Tools -->
<svg width="256px" height="256px" viewBox="-10 -10 120.00 120.00" xmlns="http://www.w3.org/2000/svg" version="1.1" fill="#000000" transform="matrix(1, 0, 0, 1, 0, 0)rotate(0)">

<g id="SVGRepo_bgCarrier" stroke-width="0">

<rect x="-10" y="-10" width="120.00" height="120.00" rx="60" fill="#E0EFE9" strokewidth="0"/>

</g>

<g id="SVGRepo_tracerCarrier" stroke-linecap="round" stroke-linejoin="round" stroke="#CCCCCC" stroke-width="0.2"/>

<g id="SVGRepo_iconCarrier"> <path style="fill:#5F3E20;stroke:#311710" d="M 24,57 C 31,49 25,27 28,19 32,8 36,1 47,1 c 13,0 20,10 24,20 1,2 0,8 2,14 2,5 -1,10 -1,12 0,5 -1,3 3,10 -7,17 -40,13 -51,0 z"/> <path style="fill:#54B9B8;stroke:#2A424F" d="m 40,51 c -5,6 -22,4 -25,17 -2,7 -1,30 14,28 -1,-18 -3,-27 -3,-27 0,0 2,17 3,25 11,6 28,6 42,-1 0,-8 -1,-15 0,-22 1,-6 0,24 0,24 0,0 9,2 12,-7 C 85,77 88,61 74,57 63,54 62,51 60,51 58,51 40,51 40,51 z"/> <path style="fill:#DEB89F;stroke:#693311" d="m 40,45 c 0,0 1,4 -1,7 4,4 13,10 21,0 -1,-3 -1,-3 -1,-7 0,0 -19,0 -19,0 z"/> <path style="fill:#DBBFA8;stroke:#693311" d="M 50,50 C 33,50 22,4 49,3.4 73,5 66,50 50,50 z"/> <path style="fill:#5F3E20" d="M 46,12 C 42,17 37,21 32,22 27,23 34,2 47,2 54,2 64,6 66,20 58,21 48,15 46,12"/> </g>

</svg>